# Blender 4.3.2
# www.blender.org
mtllib test.mtl
o Cube
v 7.539343 1.506491 -5.498700
v 7.539343 -0.493509 -5.498700
v 7.539343 1.506491 -3.498700
v 7.539343 -0.493509 -3.498700
v 5.539343 1.506491 -5.498700
v 5.539343 -0.493509 -5.498700
v 5.539343 1.506491 -3.498700
v 5.539343 -0.493509 -3.498700
vn -0.0000 1.0000 -0.0000
vn -0.0000 -0.0000 1.0000
vn -1.0000 -0.0000 -0.0000
vn -0.0000 -1.0000 -0.0000
vn 1.0000 -0.0000 -0.0000
vn -0.0000 -0.0000 -1.0000
vt 0.625000 0.500000
vt 0.875000 0.500000
vt 0.875000 0.750000
vt 0.625000 0.750000
vt 0.375000 0.750000
vt 0.625000 1.000000
vt 0.375000 1.000000
vt 0.375000 0.000000
vt 0.625000 0.000000
vt 0.625000 0.250000
vt 0.375000 0.250000
vt 0.125000 0.500000
vt 0.375000 0.500000
vt 0.125000 0.750000
s 0
usemtl Material
f 1/1/1 5/2/1 7/3/1 3/4/1
f 4/5/2 3/4/2 7/6/2 8/7/2
f 8/8/3 7/9/3 5/10/3 6/11/3
f 6/12/4 2/13/4 4/5/4 8/14/4
f 2/13/5 1/1/5 3/4/5 4/5/5
f 6/11/6 5/10/6 1/1/6 2/13/6
o Plane
v -16.385042 -0.960823 10.863383
v 16.385042 -0.960823 10.863383
v -16.385042 -0.960823 -10.863383
v 16.385042 -0.960823 -10.863383
vn -0.0000 1.0000 -0.0000
vt 0.000000 0.000000
vt 1.000000 0.000000
vt 1.000000 1.000000
vt 0.000000 1.000000
s 1
f 9/15/7 10/16/7 12/17/7 11/18/7
o Cube.001
v 0.376408 -0.361837 -5.912099
v 0.620217 -0.985959 -4.027681
v 1.015409 1.460360 -5.391260
v 1.259219 0.836239 -3.506842
v -1.503016 0.176743 -5.490557
v -1.259207 -0.447379 -3.606140
v -0.864015 1.998940 -4.969718
v -0.620205 1.374819 -3.085301
vn -0.1219 0.3121 -0.9422
vn 0.3195 0.9111 0.2604
vn -0.9397 0.2693 0.2108
vn 0.1219 -0.3121 0.9422
vn 0.9397 -0.2693 -0.2108
vn -0.3195 -0.9111 -0.2604
vt 0.625000 0.500000
vt 0.875000 0.500000
vt 0.875000 0.750000
vt 0.625000 0.750000
vt 0.375000 0.750000
vt 0.625000 1.000000
vt 0.375000 1.000000
vt 0.375000 0.000000
vt 0.625000 0.000000
vt 0.625000 0.250000
vt 0.375000 0.250000
vt 0.125000 0.500000
vt 0.375000 0.500000
vt 0.125000 0.750000
s 0
usemtl Material.001
f 13/19/8 17/20/8 19/21/8 15/22/8
f 16/23/9 15/22/9 19/24/9 20/25/9
f 20/26/10 19/27/10 17/28/10 18/29/10
f 18/30/11 14/31/11 16/23/11 20/32/11
f 14/31/12 13/19/12 15/22/12 16/23/12
f 18/29/13 17/28/13 13/19/13 14/31/13
o Cube.002
v -6.388391 -0.361837 -5.912099
v -6.144582 -0.985959 -4.027681
v -5.749390 1.460360 -5.391260
v -5.505580 0.836239 -3.506842
v -8.267815 0.176743 -5.490557
v -8.024006 -0.447379 -3.606140
v -7.628814 1.998940 -4.969718
v -7.385005 1.374819 -3.085301
vn -0.1219 0.3121 -0.9422
vn 0.3195 0.9111 0.2604
vn -0.9397 0.2693 0.2108
vn 0.1219 -0.3121 0.9422
vn 0.9397 -0.2693 -0.2108
vn -0.3195 -0.9111 -0.2604
vt 0.625000 0.500000
vt 0.875000 0.500000
vt 0.875000 0.750000
vt 0.625000 0.750000
vt 0.375000 0.750000
vt 0.625000 1.000000
vt 0.375000 1.000000
vt 0.375000 0.000000
vt 0.625000 0.000000
vt 0.625000 0.250000
vt 0.375000 0.250000
vt 0.125000 0.500000
vt 0.375000 0.500000
vt 0.125000 0.750000
s 0
usemtl Material.002
f 21/33/14 25/34/14 27/35/14 23/36/14
f 24/37/15 23/36/15 27/38/15 28/39/15
f 28/40/16 27/41/16 25/42/16 26/43/16
f 26/44/17 22/45/17 24/37/17 28/46/17
f 22/45/18 21/33/18 23/36/18 24/37/18
f 26/43/19 25/42/19 21/33/19 22/45/19
o Cube.003
v 0.376408 -0.361837 -0.643348
v 0.620217 -0.985959 1.241070
v 1.015409 1.460360 -0.122509
v 1.259219 0.836239 1.761909
v -1.503016 0.176743 -0.221806
v -1.259207 -0.447379 1.662612
v -0.864015 1.998940 0.299033
v -0.620205 1.374819 2.183450
vn -0.1219 0.3121 -0.9422
vn 0.3195 0.9111 0.2604
vn -0.9397 0.2693 0.2108
vn 0.1219 -0.3121 0.9422
vn 0.9397 -0.2693 -0.2108
vn -0.3195 -0.9111 -0.2604
vt 0.625000 0.500000
vt 0.875000 0.500000
vt 0.875000 0.750000
vt 0.625000 0.750000
vt 0.375000 0.750000
vt 0.625000 1.000000
vt 0.375000 1.000000
vt 0.375000 0.000000
vt 0.625000 0.000000
vt 0.625000 0.250000
vt 0.375000 0.250000
vt 0.125000 0.500000
vt 0.375000 0.500000
vt 0.125000 0.750000
s 0
usemtl Material.003
f 29/47/20 33/48/20 35/49/20 31/50/20
f 32/51/21 31/50/21 35/52/21 36/53/21
f 36/54/22 35/55/22 33/56/22 34/57/22
f 34/58/23 30/59/23 32/51/23 36/60/23
f 30/59/24 29/47/24 31/50/24 32/51/24
f 34/57/25 33/56/25 29/47/25 30/59/25
o Cube.004
v 10.716827 1.400171 -4.671888
v 11.391594 2.116973 -6.412832
v 11.780900 -0.270706 -4.947420
v 12.455667 0.446096 -6.688364
v 9.163625 0.566885 -5.616979
v 9.838391 1.283687 -7.357923
v 10.227697 -1.103992 -5.892511
v 10.902464 -0.387190 -7.633455
vn -0.3374 -0.3584 0.8705
vn 0.5320 -0.8354 -0.1378
vn -0.7766 -0.4166 -0.4725
vn 0.3374 0.3584 -0.8705
vn 0.7766 0.4166 0.4725
vn -0.5320 0.8354 0.1378
vt 0.625000 0.500000
vt 0.875000 0.500000
vt 0.875000 0.750000
vt 0.625000 0.750000
vt 0.375000 0.750000
vt 0.625000 1.000000
vt 0.375000 1.000000
vt 0.375000 0.000000
vt 0.625000 0.000000
vt 0.625000 0.250000
vt 0.375000 0.250000
vt 0.125000 0.500000
vt 0.375000 0.500000
vt 0.125000 0.750000
s 0
usemtl Material.004
f 37/61/26 41/62/26 43/63/26 39/64/26
f 40/65/27 39/64/27 43/66/27 44/67/27
f 44/68/28 43/69/28 41/70/28 42/71/28
f 42/72/29 38/73/29 40/65/29 44/74/29
f 38/73/30 37/61/30 39/64/30 40/65/30
f 42/71/31 41/70/31 37/61/31 38/73/31
o Cube.005
v 10.716827 4.295379 1.593448
v 11.391594 5.012180 -0.147496
v 11.780900 2.624502 1.317916
v 12.455667 3.341303 -0.423028
v 9.163625 3.462093 0.648357
v 9.838391 4.178895 -1.092586
v 10.227697 1.791216 0.372825
v 10.902464 2.508018 -1.368119
vn -0.3374 -0.3584 0.8705
vn 0.5320 -0.8354 -0.1378
vn -0.7766 -0.4166 -0.4725
vn 0.3374 0.3584 -0.8705
vn 0.7766 0.4166 0.4725
vn -0.5320 0.8354 0.1378
vt 0.625000 0.500000
vt 0.875000 0.500000
vt 0.875000 0.750000
vt 0.625000 0.750000
vt 0.375000 0.750000
vt 0.625000 1.000000
vt 0.375000 1.000000
vt 0.375000 0.000000
vt 0.625000 0.000000
vt 0.625000 0.250000
vt 0.375000 0.250000
vt 0.125000 0.500000
vt 0.375000 0.500000
vt 0.125000 0.750000
s 0
usemtl Material.005
f 45/75/32 49/76/32 51/77/32 47/78/32
f 48/79/33 47/78/33 51/80/33 52/81/33
f 52/82/34 51/83/34 49/84/34 50/85/34
f 50/86/35 46/87/35 48/79/35 52/88/35
f 46/87/36 45/75/36 47/78/36 48/79/36
f 50/85/37 49/84/37 45/75/37 46/87/37
o Cube.006
v -11.241018 1.400171 2.319422
v -10.566252 2.116973 0.578478
v -10.176946 -0.270706 2.043889
v -9.502179 0.446096 0.302946
v -12.794221 0.566885 1.374331
v -12.119454 1.283687 -0.366613
v -11.730148 -1.103992 1.098799
v -11.055382 -0.387190 -0.642145
vn -0.3374 -0.3584 0.8705
vn 0.5320 -0.8354 -0.1378
vn -0.7766 -0.4166 -0.4725
vn 0.3374 0.3584 -0.8705
vn 0.7766 0.4166 0.4725
vn -0.5320 0.8354 0.1378
vt 0.625000 0.500000
vt 0.875000 0.500000
vt 0.875000 0.750000
vt 0.625000 0.750000
vt 0.375000 0.750000
vt 0.625000 1.000000
vt 0.375000 1.000000
vt 0.375000 0.000000
vt 0.625000 0.000000
vt 0.625000 0.250000
vt 0.375000 0.250000
vt 0.125000 0.500000
vt 0.375000 0.500000
vt 0.125000 0.750000
s 0
usemtl Material.006
f 53/89/38 57/90/38 59/91/38 55/92/38
f 56/93/39 55/92/39 59/94/39 60/95/39
f 60/96/40 59/97/40 57/98/40 58/99/40
f 58/100/41 54/101/41 56/93/41 60/102/41
f 54/101/42 53/89/42 55/92/42 56/93/42
f 58/99/43 57/98/43 53/89/43 54/101/43
o Cube.007
v 10.716827 1.400171 -4.671888
v 11.391594 2.116973 -6.412832
v 11.780900 -0.270706 -4.947420
v 12.455667 0.446096 -6.688364
v 9.163625 0.566885 -5.616979
v 9.838391 1.283687 -7.357923
v 10.227697 -1.103992 -5.892511
v 10.902464 -0.387190 -7.633455
vn -0.3374 -0.3584 0.8705
vn 0.5320 -0.8354 -0.1378
vn -0.7766 -0.4166 -0.4725
vn 0.3374 0.3584 -0.8705
vn 0.7766 0.4166 0.4725
vn -0.5320 0.8354 0.1378
vt 0.625000 0.500000
vt 0.875000 0.500000
vt 0.875000 0.750000
vt 0.625000 0.750000
vt 0.375000 0.750000
vt 0.625000 1.000000
vt 0.375000 1.000000
vt 0.375000 0.000000
vt 0.625000 0.000000
vt 0.625000 0.250000
vt 0.375000 0.250000
vt 0.125000 0.500000
vt 0.375000 0.500000
vt 0.125000 0.750000
s 0
usemtl Material.007
f 61/103/44 65/104/44 67/105/44 63/106/44
f 64/107/45 63/106/45 67/108/45 68/109/45
f 68/110/46 67/111/46 65/112/46 66/113/46
f 66/114/47 62/115/47 64/107/47 68/116/47
f 62/115/48 61/103/48 63/106/48 64/107/48
f 66/113/49 65/112/49 61/103/49 62/115/49
o Cube.008
v 10.716827 2.681318 -4.671888
v 11.391594 3.398119 -6.412832
v 11.780900 1.010441 -4.947420
v 12.455667 1.727242 -6.688364
v 9.163625 1.848032 -5.616979
v 9.838391 2.564834 -7.357923
v 10.227697 0.177155 -5.892511
v 10.902464 0.893957 -7.633455
vn -0.3374 -0.3584 0.8705
vn 0.5320 -0.8354 -0.1378
vn -0.7766 -0.4166 -0.4725
vn 0.3374 0.3584 -0.8705
vn 0.7766 0.4166 0.4725
vn -0.5320 0.8354 0.1378
vt 0.625000 0.500000
vt 0.875000 0.500000
vt 0.875000 0.750000
vt 0.625000 0.750000
vt 0.375000 0.750000
vt 0.625000 1.000000
vt 0.375000 1.000000
vt 0.375000 0.000000
vt 0.625000 0.000000
vt 0.625000 0.250000
vt 0.375000 0.250000
vt 0.125000 0.500000
vt 0.375000 0.500000
vt 0.125000 0.750000
s 0
usemtl Material.008
f 69/117/50 73/118/50 75/119/50 71/120/50
f 72/121/51 71/120/51 75/122/51 76/123/51
f 76/124/52 75/125/52 73/126/52 74/127/52
f 74/128/53 70/129/53 72/121/53 76/130/53
f 70/129/54 69/117/54 71/120/54 72/121/54
f 74/127/55 73/126/55 69/117/55 70/129/55
o Plane.001
v -3.574687 8.148724 -0.886884
v -4.044343 -6.248708 -5.235159
v 3.504344 5.905745 5.775159
v 3.034687 -8.491686 1.426884
vn -0.7039 -0.1842 0.6860
vt 0.000000 0.000000
vt 1.000000 0.000000
vt 1.000000 1.000000
vt 0.000000 1.000000
s 0
f 77/131/56 78/132/56 80/133/56 79/134/56
